<svg version="1.1" id="Layer_1" xmlns="http://www.w3.org/2000/svg" xmlns:xlink="http://www.w3.org/1999/xlink" x="0px" y="0px"
	 width="100%" viewBox="0 0 1200 1200" enable-background="new 0 0 1200 1200" xml:space="preserve">
<path fill="#2C5F2D" opacity="1.000000" stroke="none" 
	d="
M767.000000,1201.000000 
	C511.333344,1201.000000 256.166656,1201.000000 1.000000,1201.000000 
	C1.000000,801.000000 1.000000,401.000000 1.000000,1.000000 
	C401.000000,1.000000 801.000000,1.000000 1201.000000,1.000000 
	C1201.000000,401.000000 1201.000000,801.000000 1201.000000,1201.000000 
	C1056.500000,1201.000000 912.000000,1201.000000 767.000000,1201.000000 
M592.501221,297.178986 
	C535.180542,298.042236 478.533051,304.440948 422.774628,317.994751 
	C359.895935,333.279358 300.160797,356.222168 245.677277,391.645172 
	C205.153793,417.991913 169.659485,449.679535 143.892776,491.085419 
	C109.095825,547.002502 100.252083,606.262634 123.144585,668.865173 
	C138.987442,712.189575 167.008530,747.018250 201.474655,776.941040 
	C246.732529,816.233093 298.914551,843.424316 354.973358,863.579895 
	C422.729187,887.941162 492.837860,900.458496 564.614441,903.752258 
	C636.738037,907.061951 708.073975,900.923523 778.345947,883.973511 
	C841.581482,868.720764 901.635254,845.663025 956.388672,810.015320 
	C997.476440,783.264832 1033.362915,751.038391 1059.152588,708.804504 
	C1092.982178,653.404663 1101.326172,594.830200 1078.819214,533.166260 
	C1062.880615,489.498047 1034.610840,454.460388 999.837280,424.360199 
	C958.295959,388.401825 910.794189,362.555450 859.732727,343.012634 
	C774.030396,310.211700 684.939758,296.801636 592.501221,297.178986 
z"/>
<path fill="#FCE579" opacity="1.000000" stroke="none" 
	d="
M593.001038,297.174591 
	C684.939758,296.801636 774.030396,310.211700 859.732727,343.012634 
	C910.794189,362.555450 958.295959,388.401825 999.837280,424.360199 
	C1034.610840,454.460388 1062.880615,489.498047 1078.819214,533.166260 
	C1101.326172,594.830200 1092.982178,653.404663 1059.152588,708.804504 
	C1033.362915,751.038391 997.476440,783.264832 956.388672,810.015320 
	C901.635254,845.663025 841.581482,868.720764 778.345947,883.973511 
	C708.073975,900.923523 636.738037,907.061951 564.614441,903.752258 
	C492.837860,900.458496 422.729187,887.941162 354.973358,863.579895 
	C298.914551,843.424316 246.732529,816.233093 201.474655,776.941040 
	C167.008530,747.018250 138.987442,712.189575 123.144585,668.865173 
	C100.252083,606.262634 109.095825,547.002502 143.892776,491.085419 
	C169.659485,449.679535 205.153793,417.991913 245.677277,391.645172 
	C300.160797,356.222168 359.895935,333.279358 422.774628,317.994751 
	C478.533051,304.440948 535.180542,298.042236 593.001038,297.174591 
M201.649643,756.859131 
	C240.194122,793.011597 285.067352,819.062195 333.637360,839.058777 
	C406.617371,869.105225 482.901764,884.039185 561.495117,888.053955 
	C637.880127,891.955933 713.250000,885.103271 787.359436,865.933960 
	C847.737549,850.316467 904.922363,827.208557 956.629639,791.784729 
	C994.167236,766.068237 1026.633301,735.307678 1049.460083,695.438232 
	C1072.924072,654.455872 1081.757446,610.778015 1071.880737,564.105286 
	C1063.627197,525.103333 1044.067261,491.970612 1017.597595,462.702759 
	C981.573975,422.871002 937.522888,394.222595 889.135376,371.893616 
	C812.699097,336.621216 731.856506,319.271088 648.218262,314.145691 
	C571.740967,309.459137 496.100861,315.578186 421.623199,334.043640 
	C361.427887,348.968079 304.242462,371.198120 252.148315,405.357452 
	C213.838516,430.478058 180.316223,460.642456 156.158401,500.059326 
	C126.022591,549.230042 117.213722,601.539368 135.240173,657.103210 
	C147.934509,696.231628 171.588455,728.314697 201.649643,756.859131 
z"/>
<path fill="#2C5F2D" opacity="1.000000" stroke="none" 
	d="
M201.395538,756.613770 
	C171.588455,728.314697 147.934509,696.231628 135.240173,657.103210 
	C117.213722,601.539368 126.022591,549.230042 156.158401,500.059326 
	C180.316223,460.642456 213.838516,430.478058 252.148315,405.357452 
	C304.242462,371.198120 361.427887,348.968079 421.623199,334.043640 
	C496.100861,315.578186 571.740967,309.459137 648.218262,314.145691 
	C731.856506,319.271088 812.699097,336.621216 889.135376,371.893616 
	C937.522888,394.222595 981.573975,422.871002 1017.597595,462.702759 
	C1044.067261,491.970612 1063.627197,525.103333 1071.880737,564.105286 
	C1081.757446,610.778015 1072.924072,654.455872 1049.460083,695.438232 
	C1026.633301,735.307678 994.167236,766.068237 956.629639,791.784729 
	C904.922363,827.208557 847.737549,850.316467 787.359436,865.933960 
	C713.250000,885.103271 637.880127,891.955933 561.495117,888.053955 
	C482.901764,884.039185 406.617371,869.105225 333.637360,839.058777 
	C285.067352,819.062195 240.194122,793.011597 201.395538,756.613770 
M556.369873,598.007751 
	C548.967224,597.649292 542.004150,599.358337 536.082031,603.729370 
	C520.068054,615.548950 510.887756,630.892517 512.545105,651.508911 
	C512.632080,652.590698 512.713562,653.977234 512.152405,654.758484 
	C507.770538,660.858398 496.279327,660.386902 492.833466,653.679749 
	C489.367096,646.932617 488.068604,639.911072 493.319733,633.080566 
	C497.072540,628.199036 500.473969,623.047668 504.042877,618.024292 
	C514.651978,603.091919 525.518005,588.324341 532.514526,571.186340 
	C536.445129,561.558289 539.621033,551.833740 538.881775,541.193787 
	C537.911072,527.220886 529.093079,519.165466 515.226440,520.090698 
	C503.172852,520.894897 494.742249,527.819824 490.198975,538.205017 
	C485.235229,549.551392 481.683105,561.576904 478.288055,573.525879 
	C476.088928,581.265564 475.274231,589.398682 474.161316,595.569397 
	C465.884460,597.322693 458.516235,597.956726 451.892548,600.516968 
	C443.271973,603.849121 437.315948,610.958984 432.711548,618.843872 
	C429.980927,623.519958 425.658997,624.011475 421.226044,624.369385 
	C418.592285,624.581970 418.416321,622.755615 419.228027,620.617981 
	C420.525055,617.202454 422.147827,613.823730 422.821167,610.275452 
	C424.526520,601.288391 419.670166,596.451599 410.655762,598.207397 
	C408.216431,598.682434 405.598633,600.243164 403.890320,602.076538 
	C399.592041,606.689636 395.565125,611.593872 391.809875,616.663269 
	C388.402008,621.263794 385.496094,626.236267 382.368896,631.044739 
	C381.673004,629.050720 381.933044,627.336548 382.286926,625.642029 
	C383.477478,619.941162 384.778503,614.262207 385.886200,608.545593 
	C386.665710,604.522705 386.227448,600.638916 382.061951,598.679077 
	C378.148468,596.837708 373.804291,597.187134 370.918793,600.325378 
	C368.086121,603.406250 365.588348,607.224915 364.266968,611.163818 
	C362.323395,616.957336 360.879303,623.095032 360.428711,629.175415 
	C359.533905,641.250732 358.919312,653.402466 359.264801,665.491943 
	C359.456268,672.192932 363.466339,675.469055 368.689880,676.008362 
	C375.369202,676.697937 380.556793,673.697998 383.010162,667.587158 
	C385.118164,662.336670 386.975952,656.983032 389.176605,651.773132 
	C392.083923,644.890381 395.217804,638.103271 398.254242,631.275085 
	C400.006989,637.158203 402.858612,641.307190 408.708008,642.222351 
	C413.706726,643.004578 418.810211,643.116882 424.168030,643.549805 
	C423.735138,658.344604 428.653351,670.557556 443.753876,675.739624 
	C457.330322,680.398621 467.887817,675.815430 474.316772,662.234863 
	C483.010620,675.012512 494.782990,678.695251 508.720459,675.731506 
	C513.338745,674.749512 517.644470,670.775818 522.066467,670.820190 
	C526.478516,670.864441 530.698059,674.848389 535.279419,676.026917 
	C551.126648,680.103333 565.562012,676.000183 579.032349,667.440857 
	C580.517700,666.497131 582.020447,665.580688 583.577576,664.612732 
	C587.153687,673.965759 589.183044,675.918457 595.210327,676.052551 
	C601.715210,676.197144 605.842041,673.326416 608.510254,666.820251 
	C613.340027,655.043396 618.176575,643.269348 623.411804,630.515991 
	C630.589600,648.956848 644.311340,642.404602 656.798584,641.359619 
	C656.680847,642.356445 656.595764,643.294617 656.456360,644.224609 
	C652.227966,672.440002 665.964966,693.530029 693.781616,700.081665 
	C715.742371,705.254028 737.370422,702.281982 757.705627,693.097290 
	C770.967896,687.107117 783.329468,679.122742 796.511658,671.799927 
	C811.817505,682.289978 825.343140,678.293396 836.598938,662.738892 
	C842.792358,677.756348 858.420715,681.172852 876.365723,666.944824 
	C880.397705,669.085632 884.185547,671.625671 888.337830,673.211853 
	C908.439026,680.889954 928.203186,678.001038 947.813110,670.940369 
	C949.538025,670.319397 952.197815,670.016602 953.524292,670.906433 
	C976.324524,686.200317 1009.764404,672.999573 1021.950073,655.791687 
	C1025.049561,651.414856 1024.910645,647.875000 1021.705566,645.088867 
	C1017.977356,641.847961 1014.863525,643.395508 1011.558716,646.139160 
	C1001.892517,654.164429 990.780090,658.662964 978.112488,658.602051 
	C975.370605,658.588867 972.567627,657.696106 969.930176,656.802856 
	C968.982666,656.481934 967.741089,654.835327 967.892517,654.030701 
	C968.072937,653.072083 969.513916,652.201172 970.583801,651.607666 
	C971.413879,651.147095 972.524597,651.217590 973.490051,650.971741 
	C983.084229,648.528687 992.338928,645.358215 999.784424,638.420776 
	C1007.832336,630.922058 1010.269470,620.666016 1006.427185,610.593872 
	C1002.456665,600.185913 990.364929,595.332581 977.294373,598.901001 
	C957.636963,604.267639 941.421936,627.513184 942.636902,648.584961 
	C942.957764,654.150940 941.992310,655.363342 935.873657,656.682556 
	C938.631348,648.406189 934.851196,642.035156 930.026306,636.061096 
	C926.259888,631.397583 922.372314,626.825439 918.391296,622.343567 
	C914.941040,618.459106 912.985168,614.798889 916.124451,609.454346 
	C918.155273,605.997009 918.194031,601.650085 915.066223,598.256775 
	C911.890503,594.811462 907.491882,593.936829 903.601929,595.695679 
	C900.227539,597.221313 896.661560,599.945740 894.885620,603.100403 
	C887.622131,616.002869 881.366760,629.477844 873.970520,642.297913 
	C871.358276,646.825745 866.865234,650.504944 862.598877,653.737488 
	C860.608704,655.245483 857.112976,654.766418 854.299622,655.187988 
	C854.015259,652.504028 853.719360,649.821167 853.462280,647.134583 
	C853.432556,646.823730 853.643372,646.496521 853.701111,646.169556 
	C855.755127,634.532898 857.863342,622.905396 859.829285,611.253784 
	C860.829956,605.322693 858.206360,602.415283 852.161133,602.489380 
	C850.059875,602.515137 847.960693,602.702209 845.981934,602.809143 
	C844.345520,597.534241 843.636414,596.781982 838.703674,596.187317 
	C836.419128,595.911926 834.034607,595.979736 831.747864,596.285095 
	C811.317078,599.013794 792.561584,616.427063 789.235779,638.377075 
	C787.819092,647.726868 783.307861,652.865967 776.486633,657.518677 
	C773.873352,659.301086 771.285767,661.140198 768.556641,662.730591 
	C752.254944,672.229980 735.279968,679.630859 715.850281,678.948914 
	C701.129822,678.432190 690.248291,671.975098 686.708679,661.049561 
	C682.658020,648.546448 684.648315,637.023254 693.818787,627.175781 
	C701.408386,619.026001 711.118469,614.906189 721.830627,612.994141 
	C728.373901,611.826172 735.013428,611.207153 741.595581,610.244568 
	C746.556885,609.518921 749.080017,606.250610 750.025146,601.589050 
	C751.349182,595.057800 747.608459,589.433167 741.000916,587.725281 
	C733.761047,585.853943 726.455505,584.168701 719.344421,581.885803 
	C712.253357,579.609375 707.529358,574.719910 705.503479,567.338379 
	C701.541687,552.903503 706.225891,540.109314 718.937256,532.283386 
	C733.785156,523.142151 749.782898,521.212708 766.472229,526.042847 
	C770.296875,527.149780 773.794067,529.388123 778.490295,531.599426 
	C775.673889,533.249817 774.135559,534.120728 772.627075,535.040649 
	C766.631897,538.696350 764.025269,544.980408 765.669739,551.766541 
	C767.488586,559.272339 773.033142,563.216187 781.651917,563.134949 
	C790.151978,563.054749 797.539978,557.671082 798.927063,550.043823 
	C801.228760,537.388123 798.044800,526.291321 787.415894,518.602905 
	C781.843262,514.571960 775.454041,511.204620 768.935120,509.036469 
	C751.292847,503.168854 733.441895,504.899689 715.764832,509.460602 
	C703.118896,512.723389 692.554932,519.437195 684.289185,529.539734 
	C666.782471,550.936707 669.531921,586.781006 705.016052,595.494324 
	C706.686096,595.904480 708.295776,596.560303 709.933594,597.101685 
	C694.505188,599.478943 681.200745,605.233459 670.735474,616.793274 
	C670.194885,617.390442 669.526489,618.038513 668.793823,618.268860 
	C662.799438,620.153198 656.804993,622.052063 650.744324,623.703430 
	C648.672058,624.268066 646.411072,624.140564 643.465820,624.396179 
	C645.233398,618.940796 647.129089,614.662109 647.962891,610.185547 
	C649.634949,601.208313 645.302246,596.755249 636.283875,598.177856 
	C633.702332,598.585083 630.865845,600.214661 629.060181,602.140564 
	C624.636230,606.859131 620.557251,611.937866 616.696960,617.137085 
	C613.388245,621.593384 610.575439,626.417847 607.543274,631.079468 
	C606.922546,629.003357 607.175781,627.268188 607.511597,625.549072 
	C608.722961,619.348450 610.290344,613.195801 611.099121,606.944275 
	C611.921021,600.591064 608.205688,597.137939 601.834473,597.932251 
	C594.109985,598.895386 590.892151,604.804871 589.395996,611.243103 
	C587.180725,620.775146 586.043030,630.553589 584.232483,640.186951 
	C583.862793,642.153992 583.022400,644.497375 581.590881,645.725220 
	C571.772583,654.147217 560.360229,658.799133 547.323242,658.579590 
	C544.093506,658.525269 540.886292,657.126831 537.668762,656.346191 
	C537.566833,655.584961 537.464966,654.823730 537.363037,654.062500 
	C539.305054,653.029785 541.137573,651.595947 543.207275,651.031067 
	C554.594788,647.923279 565.641418,644.182373 573.106079,634.265564 
	C578.965759,626.481018 579.219666,617.869446 575.337769,609.203918 
	C571.907104,601.545532 565.382263,598.398254 556.369873,598.007751 
M207.604111,626.078552 
	C208.458633,632.505493 208.755646,639.066589 210.264435,645.336121 
	C216.714676,672.139038 232.777008,697.485901 267.841492,700.494202 
	C297.672913,703.053528 322.390320,692.537109 339.685608,667.838989 
	C359.807495,639.104370 364.838074,606.917053 356.918732,573.049011 
	C351.127197,548.280701 336.684540,529.768616 311.670532,522.228699 
	C282.897247,513.555603 249.581818,525.105286 231.178925,549.036499 
	C213.952057,571.438354 206.691299,597.066528 207.604111,626.078552 
z"/>
<path fill="#FCE579" opacity="1.000000" stroke="none" 
	d="
M556.826477,598.022156 
	C565.382263,598.398254 571.907104,601.545532 575.337769,609.203918 
	C579.219666,617.869446 578.965759,626.481018 573.106079,634.265564 
	C565.641418,644.182373 554.594788,647.923279 543.207275,651.031067 
	C541.137573,651.595947 539.305054,653.029785 537.363037,654.062500 
	C537.464966,654.823730 537.566833,655.584961 537.668762,656.346191 
	C540.886292,657.126831 544.093506,658.525269 547.323242,658.579590 
	C560.360229,658.799133 571.772583,654.147217 581.590881,645.725220 
	C583.022400,644.497375 583.862793,642.153992 584.232483,640.186951 
	C586.043030,630.553589 587.180725,620.775146 589.395996,611.243103 
	C590.892151,604.804871 594.109985,598.895386 601.834473,597.932251 
	C608.205688,597.137939 611.921021,600.591064 611.099121,606.944275 
	C610.290344,613.195801 608.722961,619.348450 607.511597,625.549072 
	C607.175781,627.268188 606.922546,629.003357 607.543274,631.079468 
	C610.575439,626.417847 613.388245,621.593384 616.696960,617.137085 
	C620.557251,611.937866 624.636230,606.859131 629.060181,602.140564 
	C630.865845,600.214661 633.702332,598.585083 636.283875,598.177856 
	C645.302246,596.755249 649.634949,601.208313 647.962891,610.185547 
	C647.129089,614.662109 645.233398,618.940796 643.465820,624.396179 
	C646.411072,624.140564 648.672058,624.268066 650.744324,623.703430 
	C656.804993,622.052063 662.799438,620.153198 668.793823,618.268860 
	C669.526489,618.038513 670.194885,617.390442 670.735474,616.793274 
	C681.200745,605.233459 694.505188,599.478943 709.933594,597.101685 
	C708.295776,596.560303 706.686096,595.904480 705.016052,595.494324 
	C669.531921,586.781006 666.782471,550.936707 684.289185,529.539734 
	C692.554932,519.437195 703.118896,512.723389 715.764832,509.460602 
	C733.441895,504.899689 751.292847,503.168854 768.935120,509.036469 
	C775.454041,511.204620 781.843262,514.571960 787.415894,518.602905 
	C798.044800,526.291321 801.228760,537.388123 798.927063,550.043823 
	C797.539978,557.671082 790.151978,563.054749 781.651917,563.134949 
	C773.033142,563.216187 767.488586,559.272339 765.669739,551.766541 
	C764.025269,544.980408 766.631897,538.696350 772.627075,535.040649 
	C774.135559,534.120728 775.673889,533.249817 778.490295,531.599426 
	C773.794067,529.388123 770.296875,527.149780 766.472229,526.042847 
	C749.782898,521.212708 733.785156,523.142151 718.937256,532.283386 
	C706.225891,540.109314 701.541687,552.903503 705.503479,567.338379 
	C707.529358,574.719910 712.253357,579.609375 719.344421,581.885803 
	C726.455505,584.168701 733.761047,585.853943 741.000916,587.725281 
	C747.608459,589.433167 751.349182,595.057800 750.025146,601.589050 
	C749.080017,606.250610 746.556885,609.518921 741.595581,610.244568 
	C735.013428,611.207153 728.373901,611.826172 721.830627,612.994141 
	C711.118469,614.906189 701.408386,619.026001 693.818787,627.175781 
	C684.648315,637.023254 682.658020,648.546448 686.708679,661.049561 
	C690.248291,671.975098 701.129822,678.432190 715.850281,678.948914 
	C735.279968,679.630859 752.254944,672.229980 768.556641,662.730591 
	C771.285767,661.140198 773.873352,659.301086 776.486633,657.518677 
	C783.307861,652.865967 787.819092,647.726868 789.235779,638.377075 
	C792.561584,616.427063 811.317078,599.013794 831.747864,596.285095 
	C834.034607,595.979736 836.419128,595.911926 838.703674,596.187317 
	C843.636414,596.781982 844.345520,597.534241 845.981934,602.809143 
	C847.960693,602.702209 850.059875,602.515137 852.161133,602.489380 
	C858.206360,602.415283 860.829956,605.322693 859.829285,611.253784 
	C857.863342,622.905396 855.755127,634.532898 853.701111,646.169556 
	C853.643372,646.496521 853.432556,646.823730 853.462280,647.134583 
	C853.719360,649.821167 854.015259,652.504028 854.299622,655.187988 
	C857.112976,654.766418 860.608704,655.245483 862.598877,653.737488 
	C866.865234,650.504944 871.358276,646.825745 873.970520,642.297913 
	C881.366760,629.477844 887.622131,616.002869 894.885620,603.100403 
	C896.661560,599.945740 900.227539,597.221313 903.601929,595.695679 
	C907.491882,593.936829 911.890503,594.811462 915.066223,598.256775 
	C918.194031,601.650085 918.155273,605.997009 916.124451,609.454346 
	C912.985168,614.798889 914.941040,618.459106 918.391296,622.343567 
	C922.372314,626.825439 926.259888,631.397583 930.026306,636.061096 
	C934.851196,642.035156 938.631348,648.406189 935.873657,656.682556 
	C941.992310,655.363342 942.957764,654.150940 942.636902,648.584961 
	C941.421936,627.513184 957.636963,604.267639 977.294373,598.901001 
	C990.364929,595.332581 1002.456665,600.185913 1006.427185,610.593872 
	C1010.269470,620.666016 1007.832336,630.922058 999.784424,638.420776 
	C992.338928,645.358215 983.084229,648.528687 973.490051,650.971741 
	C972.524597,651.217590 971.413879,651.147095 970.583801,651.607666 
	C969.513916,652.201172 968.072937,653.072083 967.892517,654.030701 
	C967.741089,654.835327 968.982666,656.481934 969.930176,656.802856 
	C972.567627,657.696106 975.370605,658.588867 978.112488,658.602051 
	C990.780090,658.662964 1001.892517,654.164429 1011.558716,646.139160 
	C1014.863525,643.395508 1017.977356,641.847961 1021.705566,645.088867 
	C1024.910645,647.875000 1025.049561,651.414856 1021.950073,655.791687 
	C1009.764404,672.999573 976.324524,686.200317 953.524292,670.906433 
	C952.197815,670.016602 949.538025,670.319397 947.813110,670.940369 
	C928.203186,678.001038 908.439026,680.889954 888.337830,673.211853 
	C884.185547,671.625671 880.397705,669.085632 876.365723,666.944824 
	C858.420715,681.172852 842.792358,677.756348 836.598938,662.738892 
	C825.343140,678.293396 811.817505,682.289978 796.511658,671.799927 
	C783.329468,679.122742 770.967896,687.107117 757.705627,693.097290 
	C737.370422,702.281982 715.742371,705.254028 693.781616,700.081665 
	C665.964966,693.530029 652.227966,672.440002 656.456360,644.224609 
	C656.595764,643.294617 656.680847,642.356445 656.798584,641.359619 
	C644.311340,642.404602 630.589600,648.956848 623.411804,630.515991 
	C618.176575,643.269348 613.340027,655.043396 608.510254,666.820251 
	C605.842041,673.326416 601.715210,676.197144 595.210327,676.052551 
	C589.183044,675.918457 587.153687,673.965759 583.577576,664.612732 
	C582.020447,665.580688 580.517700,666.497131 579.032349,667.440857 
	C565.562012,676.000183 551.126648,680.103333 535.279419,676.026917 
	C530.698059,674.848389 526.478516,670.864441 522.066467,670.820190 
	C517.644470,670.775818 513.338745,674.749512 508.720459,675.731506 
	C494.782990,678.695251 483.010620,675.012512 474.316772,662.234863 
	C467.887817,675.815430 457.330322,680.398621 443.753876,675.739624 
	C428.653351,670.557556 423.735138,658.344604 424.168030,643.549805 
	C418.810211,643.116882 413.706726,643.004578 408.708008,642.222351 
	C402.858612,641.307190 400.006989,637.158203 398.254242,631.275085 
	C395.217804,638.103271 392.083923,644.890381 389.176605,651.773132 
	C386.975952,656.983032 385.118164,662.336670 383.010162,667.587158 
	C380.556793,673.697998 375.369202,676.697937 368.689880,676.008362 
	C363.466339,675.469055 359.456268,672.192932 359.264801,665.491943 
	C358.919312,653.402466 359.533905,641.250732 360.428711,629.175415 
	C360.879303,623.095032 362.323395,616.957336 364.266968,611.163818 
	C365.588348,607.224915 368.086121,603.406250 370.918793,600.325378 
	C373.804291,597.187134 378.148468,596.837708 382.061951,598.679077 
	C386.227448,600.638916 386.665710,604.522705 385.886200,608.545593 
	C384.778503,614.262207 383.477478,619.941162 382.286926,625.642029 
	C381.933044,627.336548 381.673004,629.050720 382.368896,631.044739 
	C385.496094,626.236267 388.402008,621.263794 391.809875,616.663269 
	C395.565125,611.593872 399.592041,606.689636 403.890320,602.076538 
	C405.598633,600.243164 408.216431,598.682434 410.655762,598.207397 
	C419.670166,596.451599 424.526520,601.288391 422.821167,610.275452 
	C422.147827,613.823730 420.525055,617.202454 419.228027,620.617981 
	C418.416321,622.755615 418.592285,624.581970 421.226044,624.369385 
	C425.658997,624.011475 429.980927,623.519958 432.711548,618.843872 
	C437.315948,610.958984 443.271973,603.849121 451.892548,600.516968 
	C458.516235,597.956726 465.884460,597.322693 474.161316,595.569397 
	C475.274231,589.398682 476.088928,581.265564 478.288055,573.525879 
	C481.683105,561.576904 485.235229,549.551392 490.198975,538.205017 
	C494.742249,527.819824 503.172852,520.894897 515.226440,520.090698 
	C529.093079,519.165466 537.911072,527.220886 538.881775,541.193787 
	C539.621033,551.833740 536.445129,561.558289 532.514526,571.186340 
	C525.518005,588.324341 514.651978,603.091919 504.042877,618.024292 
	C500.473969,623.047668 497.072540,628.199036 493.319733,633.080566 
	C488.068604,639.911072 489.367096,646.932617 492.833466,653.679749 
	C496.279327,660.386902 507.770538,660.858398 512.152405,654.758484 
	C512.713562,653.977234 512.632080,652.590698 512.545105,651.508911 
	C510.887756,630.892517 520.068054,615.548950 536.082031,603.729370 
	C542.004150,599.358337 548.967224,597.649292 556.826477,598.022156 
M809.431458,650.022217 
	C810.615417,655.743896 812.512878,657.305420 818.262024,657.108459 
	C824.835327,656.883301 829.414978,653.050659 831.797241,647.557556 
	C834.544128,641.223572 836.189514,634.378784 837.949890,627.660583 
	C839.359253,622.281799 840.225281,616.760681 841.349792,611.216980 
	C824.074585,610.218201 806.359375,631.711731 809.431458,650.022217 
M448.716187,631.244446 
	C445.136841,636.482788 445.610138,642.337708 446.567322,648.071167 
	C447.584930,654.166565 450.804962,657.197571 455.797699,657.640808 
	C461.253845,658.125244 464.506531,654.766663 465.773438,650.302429 
	C467.979614,642.528442 469.474457,634.531555 470.883514,626.560303 
	C471.703674,621.920715 471.776855,617.149109 472.194305,612.342712 
	C463.296692,612.971375 456.856018,616.287354 452.565277,622.748596 
	C451.007355,625.094604 450.365479,628.048828 448.716187,631.244446 
M505.406738,585.950928 
	C509.867462,574.353333 514.534546,562.827271 518.601685,551.093262 
	C519.348389,548.939087 517.659668,545.940674 517.095093,543.331970 
	C514.210938,544.061340 510.434814,543.909119 508.644836,545.720032 
	C505.723236,548.675842 503.041595,552.664368 502.107147,556.650574 
	C498.130432,573.614868 494.821686,590.736084 491.332672,607.812988 
	C491.207947,608.423340 491.752045,609.170288 492.298828,610.777954 
	C496.850494,602.171143 500.962463,594.395752 505.406738,585.950928 
M895.105042,652.690002 
	C895.257751,654.545654 894.883850,657.728638 895.651978,658.033569 
	C899.540466,659.576477 903.726196,661.230408 907.807007,661.228638 
	C914.023254,661.225952 917.059326,657.128784 916.339050,650.948730 
	C915.421326,643.074402 911.899475,636.293396 906.568298,629.084473 
	C902.593445,637.249146 899.006592,644.616882 895.105042,652.690002 
M981.315979,616.764526 
	C971.720398,619.918335 966.671936,627.079529 964.290527,636.420654 
	C963.761047,638.497620 964.060547,641.870972 967.233337,640.099060 
	C974.360962,636.118347 981.244568,631.591370 987.715027,626.619751 
	C989.344788,625.367493 990.239075,620.957825 989.281372,619.176636 
	C988.380981,617.502014 984.588745,617.382263 981.315979,616.764526 
M534.960510,632.755615 
	C534.519287,635.373047 534.078064,637.990540 533.495361,641.447388 
	C542.952393,638.272522 550.517761,634.292419 556.550964,627.893555 
	C558.911621,625.389771 561.750854,621.667236 558.722229,618.782776 
	C556.793274,616.945618 552.458313,617.271667 549.215393,617.332275 
	C547.625732,617.362000 545.678589,618.664917 544.565491,619.966492 
	C541.266357,623.824524 538.301453,627.968384 534.960510,632.755615 
z"/>
<path fill="#FDE679" opacity="1.000000" stroke="none" 
	d="
M207.589203,625.615723 
	C206.691299,597.066528 213.952057,571.438354 231.178925,549.036499 
	C249.581818,525.105286 282.897247,513.555603 311.670532,522.228699 
	C336.684540,529.768616 351.127197,548.280701 356.918732,573.049011 
	C364.838074,606.917053 359.807495,639.104370 339.685608,667.838989 
	C322.390320,692.537109 297.672913,703.053528 267.841492,700.494202 
	C232.777008,697.485901 216.714676,672.139038 210.264435,645.336121 
	C208.755646,639.066589 208.458633,632.505493 207.589203,625.615723 
M305.096954,666.633911 
	C315.517242,657.507751 322.491547,646.269348 326.432404,632.966370 
	C330.361450,619.703125 331.531342,606.194397 330.960754,592.480408 
	C330.415985,579.386780 326.648560,567.281921 319.121552,556.477661 
	C313.139435,547.890930 304.890289,543.091614 294.395966,542.526001 
	C275.354156,541.499512 261.068207,550.113892 250.167419,565.014587 
	C238.760376,580.607178 235.862076,598.740662 235.171921,617.449829 
	C234.586853,633.310608 237.693344,648.255493 246.537231,661.670410 
	C251.364334,668.992432 257.685181,674.420471 266.568420,676.252197 
	C280.667694,679.159363 293.252380,675.795410 305.096954,666.633911 
z"/>
<path fill="#30612E" opacity="1.000000" stroke="none" 
	d="
M809.344360,649.632324 
	C806.359375,631.711731 824.074585,610.218201 841.349792,611.216980 
	C840.225281,616.760681 839.359253,622.281799 837.949890,627.660583 
	C836.189514,634.378784 834.544128,641.223572 831.797241,647.557556 
	C829.414978,653.050659 824.835327,656.883301 818.262024,657.108459 
	C812.512878,657.305420 810.615417,655.743896 809.344360,649.632324 
z"/>
<path fill="#30622F" opacity="1.000000" stroke="none" 
	d="
M449.010925,630.984985 
	C450.365479,628.048828 451.007355,625.094604 452.565277,622.748596 
	C456.856018,616.287354 463.296692,612.971375 472.194305,612.342712 
	C471.776855,617.149109 471.703674,621.920715 470.883514,626.560303 
	C469.474457,634.531555 467.979614,642.528442 465.773438,650.302429 
	C464.506531,654.766663 461.253845,658.125244 455.797699,657.640808 
	C450.804962,657.197571 447.584930,654.166565 446.567322,648.071167 
	C445.610138,642.337708 445.136841,636.482788 449.010925,630.984985 
z"/>
<path fill="#32632F" opacity="1.000000" stroke="none" 
	d="
M505.240601,586.285645 
	C500.962463,594.395752 496.850494,602.171143 492.298828,610.777954 
	C491.752045,609.170288 491.207947,608.423340 491.332672,607.812988 
	C494.821686,590.736084 498.130432,573.614868 502.107147,556.650574 
	C503.041595,552.664368 505.723236,548.675842 508.644836,545.720032 
	C510.434814,543.909119 514.210938,544.061340 517.095093,543.331970 
	C517.659668,545.940674 519.348389,548.939087 518.601685,551.093262 
	C514.534546,562.827271 509.867462,574.353333 505.240601,586.285645 
z"/>
<path fill="#32632F" opacity="1.000000" stroke="none" 
	d="
M895.262390,652.337280 
	C899.006592,644.616882 902.593445,637.249146 906.568298,629.084473 
	C911.899475,636.293396 915.421326,643.074402 916.339050,650.948730 
	C917.059326,657.128784 914.023254,661.225952 907.807007,661.228638 
	C903.726196,661.230408 899.540466,659.576477 895.651978,658.033569 
	C894.883850,657.728638 895.257751,654.545654 895.262390,652.337280 
z"/>
<path fill="#336430" opacity="1.000000" stroke="none" 
	d="
M981.692383,616.671509 
	C984.588745,617.382263 988.380981,617.502014 989.281372,619.176636 
	C990.239075,620.957825 989.344788,625.367493 987.715027,626.619751 
	C981.244568,631.591370 974.360962,636.118347 967.233337,640.099060 
	C964.060547,641.870972 963.761047,638.497620 964.290527,636.420654 
	C966.671936,627.079529 971.720398,619.918335 981.692383,616.671509 
z"/>
<path fill="#32632F" opacity="1.000000" stroke="none" 
	d="
M535.083130,632.378052 
	C538.301453,627.968384 541.266357,623.824524 544.565491,619.966492 
	C545.678589,618.664917 547.625732,617.362000 549.215393,617.332275 
	C552.458313,617.271667 556.793274,616.945618 558.722229,618.782776 
	C561.750854,621.667236 558.911621,625.389771 556.550964,627.893555 
	C550.517761,634.292419 542.952393,638.272522 533.495361,641.447388 
	C534.078064,637.990540 534.519287,635.373047 535.083130,632.378052 
z"/>
<path fill="#2D602D" opacity="1.000000" stroke="none" 
	d="
M304.823975,666.863525 
	C293.252380,675.795410 280.667694,679.159363 266.568420,676.252197 
	C257.685181,674.420471 251.364334,668.992432 246.537231,661.670410 
	C237.693344,648.255493 234.586853,633.310608 235.171921,617.449829 
	C235.862076,598.740662 238.760376,580.607178 250.167419,565.014587 
	C261.068207,550.113892 275.354156,541.499512 294.395966,542.526001 
	C304.890289,543.091614 313.139435,547.890930 319.121552,556.477661 
	C326.648560,567.281921 330.415985,579.386780 330.960754,592.480408 
	C331.531342,606.194397 330.361450,619.703125 326.432404,632.966370 
	C322.491547,646.269348 315.517242,657.507751 304.823975,666.863525 
z"/>
</svg>