<svg version="1.1" id="Layer_1" xmlns="http://www.w3.org/2000/svg" xmlns:xlink="http://www.w3.org/1999/xlink" x="0px" y="0px"
	 width="100%" viewBox="0 0 1200 628" enable-background="new 0 0 1200 628" xml:space="preserve">
<path fill="#FFFFFF" opacity="1.000000" stroke="none" 
	d="
M771.000000,629.000000 
	C514.000000,629.000000 257.500031,629.000000 1.000034,629.000000 
	C1.000023,419.666687 1.000023,210.333389 1.000011,1.000063 
	C400.999969,1.000042 800.999939,1.000042 1201.000000,1.000021 
	C1201.000000,210.333267 1201.000000,419.666534 1201.000000,628.999878 
	C1057.833374,629.000000 914.666687,629.000000 771.000000,629.000000 
M884.982727,70.590385 
	C870.753906,64.979622 856.686584,58.909157 842.266724,53.841934 
	C793.657715,36.760410 743.717285,25.220127 692.442993,20.041868 
	C666.843628,17.456551 641.139099,15.042900 615.442871,14.533464 
	C590.212341,14.033260 564.852417,15.096947 539.695374,17.212587 
	C513.108093,19.448507 486.568024,22.975086 460.233398,27.310812 
	C422.945526,33.449871 386.619202,43.718342 351.149872,56.742947 
	C322.850555,67.134682 295.362305,79.404381 269.177155,94.474358 
	C231.854279,115.954247 197.735535,141.420105 169.400223,174.137573 
	C145.574356,201.648193 127.260773,232.147324 117.617882,267.596344 
	C109.236710,298.407043 108.564308,329.336853 115.551376,360.316315 
	C121.427917,386.371918 132.481476,410.345642 147.210098,432.637390 
	C170.496887,467.882019 200.775940,496.104004 235.281830,519.971375 
	C286.762451,555.579956 343.641998,579.400391 403.769989,595.769104 
	C439.043365,605.371643 474.838379,612.558655 511.288116,616.023560 
	C530.123291,617.814087 548.965332,619.800598 567.851868,620.702576 
	C584.773438,621.510681 601.772827,621.382751 618.714966,620.887207 
	C638.643066,620.304138 658.645752,619.777649 678.435181,617.589966 
	C702.481262,614.931641 726.467529,611.253845 750.250732,606.795593 
	C801.279663,597.229980 850.506287,581.638306 897.520691,559.518311 
	C936.712585,541.078674 973.173218,518.373535 1005.451111,489.174530 
	C1031.011597,466.052246 1052.552002,439.900146 1068.327515,409.170746 
	C1087.973755,370.901703 1095.450684,330.448517 1088.735718,287.844421 
	C1084.063477,258.199554 1072.610107,231.008636 1056.380371,205.801804 
	C1040.852173,181.684860 1021.857361,160.604553 1000.209900,141.892365 
	C965.809570,112.156471 927.186157,89.191963 884.982727,70.590385 
z"/>
<path fill="#FDE77E" opacity="1.000000" stroke="none" 
	d="
M885.324341,70.757645 
	C927.186157,89.191963 965.809570,112.156471 1000.209900,141.892365 
	C1021.857361,160.604553 1040.852173,181.684860 1056.380371,205.801804 
	C1072.610107,231.008636 1084.063477,258.199554 1088.735718,287.844421 
	C1095.450684,330.448517 1087.973755,370.901703 1068.327515,409.170746 
	C1052.552002,439.900146 1031.011597,466.052246 1005.451111,489.174530 
	C973.173218,518.373535 936.712585,541.078674 897.520691,559.518311 
	C850.506287,581.638306 801.279663,597.229980 750.250732,606.795593 
	C726.467529,611.253845 702.481262,614.931641 678.435181,617.589966 
	C658.645752,619.777649 638.643066,620.304138 618.714966,620.887207 
	C601.772827,621.382751 584.773438,621.510681 567.851868,620.702576 
	C548.965332,619.800598 530.123291,617.814087 511.288116,616.023560 
	C474.838379,612.558655 439.043365,605.371643 403.769989,595.769104 
	C343.641998,579.400391 286.762451,555.579956 235.281830,519.971375 
	C200.775940,496.104004 170.496887,467.882019 147.210098,432.637390 
	C132.481476,410.345642 121.427917,386.371918 115.551376,360.316315 
	C108.564308,329.336853 109.236710,298.407043 117.617882,267.596344 
	C127.260773,232.147324 145.574356,201.648193 169.400223,174.137573 
	C197.735535,141.420105 231.854279,115.954247 269.177155,94.474358 
	C295.362305,79.404381 322.850555,67.134682 351.149872,56.742947 
	C386.619202,43.718342 422.945526,33.449871 460.233398,27.310812 
	C486.568024,22.975086 513.108093,19.448507 539.695374,17.212587 
	C564.852417,15.096947 590.212341,14.033260 615.442871,14.533464 
	C641.139099,15.042900 666.843628,17.456551 692.442993,20.041868 
	C743.717285,25.220127 793.657715,36.760410 842.266724,53.841934 
	C856.686584,58.909157 870.753906,64.979622 885.324341,70.757645 
M200.919525,162.414001 
	C175.937683,186.164810 155.148071,212.920624 141.407364,244.813919 
	C128.362808,275.091339 123.099495,306.589172 127.133003,339.328522 
	C130.510437,366.742645 139.902512,392.201752 154.125336,415.903717 
	C177.644302,455.097565 210.175354,485.463257 247.672638,510.762665 
	C297.312500,544.254639 352.044769,566.449890 409.615631,581.961487 
	C461.784851,596.017639 515.027771,603.634216 568.927551,605.741211 
	C605.666199,607.177246 642.519592,607.020691 679.080933,602.084229 
	C704.882141,598.600586 730.726501,595.067993 756.266785,590.094727 
	C813.095398,579.028992 867.251709,560.075806 918.283264,532.488220 
	C947.108276,516.905396 973.990173,498.512512 998.064453,476.288696 
	C1023.734558,452.591827 1045.047485,425.512390 1059.413696,393.363586 
	C1073.074585,362.793396 1078.812744,330.863861 1074.845093,297.562164 
	C1071.164062,266.667664 1060.070068,238.366318 1043.040405,212.335846 
	C1020.165588,177.370895 990.162781,149.634232 955.902100,126.235329 
	C927.469116,106.816597 897.000427,91.236977 865.118042,78.286087 
	C835.783386,66.370110 805.812012,56.393803 774.867493,49.813053 
	C749.571533,44.433548 724.085876,39.726913 698.496826,36.014175 
	C677.831116,33.015778 656.907593,30.674915 636.059387,30.316967 
	C604.969177,29.783171 573.816711,30.648607 542.744690,32.086086 
	C523.221741,32.989277 503.695496,35.349182 484.351257,38.256664 
	C448.836212,43.594631 413.886597,51.681263 379.647034,62.631657 
	C343.554565,74.174637 308.792084,88.851288 275.829559,107.593391 
	C248.978226,122.860741 223.830368,140.529175 200.919525,162.414001 
z"/>
<path fill="#FFFFFF" opacity="1.000000" stroke="none" 
	d="
M201.171478,162.165619 
	C223.830368,140.529175 248.978226,122.860741 275.829559,107.593391 
	C308.792084,88.851288 343.554565,74.174637 379.647034,62.631657 
	C413.886597,51.681263 448.836212,43.594631 484.351257,38.256664 
	C503.695496,35.349182 523.221741,32.989277 542.744690,32.086086 
	C573.816711,30.648607 604.969177,29.783171 636.059387,30.316967 
	C656.907593,30.674915 677.831116,33.015778 698.496826,36.014175 
	C724.085876,39.726913 749.571533,44.433548 774.867493,49.813053 
	C805.812012,56.393803 835.783386,66.370110 865.118042,78.286087 
	C897.000427,91.236977 927.469116,106.816597 955.902100,126.235329 
	C990.162781,149.634232 1020.165588,177.370895 1043.040405,212.335846 
	C1060.070068,238.366318 1071.164062,266.667664 1074.845093,297.562164 
	C1078.812744,330.863861 1073.074585,362.793396 1059.413696,393.363586 
	C1045.047485,425.512390 1023.734558,452.591827 998.064453,476.288696 
	C973.990173,498.512512 947.108276,516.905396 918.283264,532.488220 
	C867.251709,560.075806 813.095398,579.028992 756.266785,590.094727 
	C730.726501,595.067993 704.882141,598.600586 679.080933,602.084229 
	C642.519592,607.020691 605.666199,607.177246 568.927551,605.741211 
	C515.027771,603.634216 461.784851,596.017639 409.615631,581.961487 
	C352.044769,566.449890 297.312500,544.254639 247.672638,510.762665 
	C210.175354,485.463257 177.644302,455.097565 154.125336,415.903717 
	C139.902512,392.201752 130.510437,366.742645 127.133003,339.328522 
	C123.099495,306.589172 128.362808,275.091339 141.407364,244.813919 
	C155.148071,212.920624 175.937683,186.164810 201.171478,162.165619 
M775.390564,250.892075 
	C766.046387,255.728104 762.906372,263.536621 766.986938,271.789978 
	C770.865784,279.635468 780.728149,282.511414 789.391296,278.234894 
	C799.895691,273.049469 800.986023,264.744843 798.136230,251.904205 
	C794.785767,236.808273 782.173157,230.411255 768.860779,226.155411 
	C751.399353,220.573181 733.677917,221.933517 716.229065,226.584854 
	C699.568970,231.025955 686.306824,240.229858 678.521545,256.083954 
	C666.501770,280.561401 678.182373,305.457092 704.643799,312.075592 
	C705.773132,312.358063 706.905273,312.657074 707.996155,313.057281 
	C709.027222,313.435516 710.005615,313.957367 711.852600,314.803223 
	C695.398438,316.481659 681.835022,322.024017 671.102661,333.590790 
	C670.328735,334.424957 669.406067,335.352631 668.375671,335.679596 
	C662.063599,337.682709 655.726440,339.620544 649.334839,341.348053 
	C647.894714,341.737274 645.663208,341.767426 644.795837,340.928772 
	C644.043823,340.201599 644.479126,337.962097 644.788818,336.474121 
	C645.761719,331.799377 647.444580,327.199249 647.764343,322.496246 
	C647.899719,320.505554 645.796814,317.377594 643.885437,316.427063 
	C639.127930,314.061005 634.000305,314.265350 630.112183,318.497559 
	C625.622131,323.385040 621.240601,328.415405 617.274841,333.729156 
	C613.493286,338.796112 610.307373,344.307556 606.859619,349.623596 
	C606.163879,348.423431 606.281738,347.638672 606.429993,346.859711 
	C607.949097,338.879395 609.804443,330.943939 610.870422,322.903717 
	C611.500916,318.147858 608.101074,315.159882 603.336365,315.061066 
	C597.368774,314.937286 592.167908,318.850800 590.172729,326.660797 
	C587.882385,335.626465 586.327454,344.823730 585.140137,354.009186 
	C584.542542,358.632080 583.559448,362.700714 579.340942,364.866455 
	C572.441711,368.408447 565.541687,372.237610 558.199524,374.525726 
	C553.374817,376.029236 547.751770,375.335480 542.530212,374.980011 
	C540.953674,374.872650 539.524353,372.602478 538.027588,371.322998 
	C539.634827,370.171722 541.104492,368.712219 542.873169,367.922363 
	C550.567627,364.486053 558.980896,362.225616 565.966370,357.726532 
	C580.098267,348.624725 581.665710,329.827118 570.026001,319.675659 
	C563.400024,313.896851 548.748779,313.140717 539.302490,319.109924 
	C521.301086,330.485199 511.058197,346.347046 512.891052,368.521454 
	C512.991760,369.739471 512.765747,371.336273 512.037598,372.214050 
	C507.216400,378.026001 495.854584,377.375305 492.601685,370.758301 
	C489.296783,364.035614 487.701569,356.936584 493.105469,350.134827 
	C495.481049,347.144745 497.462799,343.844360 499.673004,340.719940 
	C511.289581,324.298248 523.710815,308.391968 531.599854,289.627136 
	C535.684509,279.911316 539.306274,270.136810 538.860474,259.345062 
	C538.392639,248.018127 531.749512,238.850235 522.079712,237.396378 
	C511.425568,235.794479 502.174957,239.253738 495.389374,247.661865 
	C483.659882,262.196045 480.496002,280.021118 477.077606,297.673340 
	C475.988525,303.297028 475.104401,308.960419 474.116669,314.662567 
	C471.618530,314.415131 469.828674,314.100861 468.035645,314.081726 
	C452.410980,313.915039 441.681549,322.193726 433.819458,334.691101 
	C431.114136,338.991486 427.560059,340.776855 423.004089,341.629913 
	C419.483704,342.289032 418.169983,340.836243 419.190430,337.515686 
	C420.117523,334.498932 421.673615,331.655396 422.413055,328.604736 
	C424.791962,318.789734 421.082153,314.837372 411.168365,315.237335 
	C409.495819,315.304840 407.381348,316.187408 406.309479,317.421509 
	C400.347534,324.285828 394.524963,331.281006 388.905670,338.428741 
	C386.337006,341.696075 384.343140,345.415314 382.088562,348.929565 
	C381.710266,348.769196 381.332001,348.608826 380.953705,348.448425 
	C381.243744,346.901947 381.501770,345.348663 381.829437,343.810150 
	C383.142914,337.643097 384.555420,331.495941 385.775787,325.310730 
	C386.500366,321.638428 386.048950,317.544434 382.309967,316.344360 
	C379.223633,315.353821 374.401825,315.230835 372.215515,317.013092 
	C368.717560,319.864532 365.672180,324.279755 364.353088,328.617126 
	C359.231537,345.457703 358.118469,362.857697 359.026367,380.385956 
	C359.402832,387.654144 362.666595,391.843750 368.376556,392.796448 
	C374.821411,393.871735 380.614716,390.249329 383.140961,383.654785 
	C385.462067,377.595673 387.727386,371.509552 390.264160,365.540314 
	C392.744934,359.702850 395.537659,353.997986 398.857513,346.793884 
	C402.556580,362.965118 414.672852,359.322418 424.631500,360.049561 
	C424.091919,373.826660 427.680389,385.226227 440.580200,391.137054 
	C455.058838,397.771271 466.703705,394.027527 474.226288,379.370331 
	C487.254028,395.893188 503.741119,396.697754 519.650085,388.284119 
	C520.947998,387.597656 523.339783,387.637054 524.581604,388.393158 
	C537.993896,396.559357 552.001770,395.435211 565.945801,390.735718 
	C572.107422,388.659119 577.723511,384.964172 583.309509,382.144135 
	C585.303406,385.218079 586.601318,388.729767 589.100647,390.769226 
	C594.967468,395.556610 604.494629,392.505981 607.812927,385.047791 
	C610.108093,379.889160 611.821045,374.474457 614.009705,369.264740 
	C616.997253,362.153778 620.189819,355.128906 623.670776,347.211029 
	C630.465027,365.911316 644.466248,358.839752 656.985840,358.399902 
	C656.779419,360.200836 656.684875,361.961853 656.364075,363.680664 
	C652.790222,382.830383 663.058167,403.511139 680.500549,412.148041 
	C697.401794,420.516998 715.229370,420.237030 733.182312,417.303467 
	C755.408630,413.671661 774.558899,403.114594 792.351501,389.835449 
	C794.516602,388.219635 795.804199,387.667786 798.310669,389.510315 
	C809.118225,397.455139 823.885376,395.145386 832.194946,384.569000 
	C833.541504,382.855072 835.091553,381.301025 836.715393,379.485535 
	C843.100525,391.609528 850.394226,395.153046 861.694824,391.704865 
	C864.986816,390.700348 868.326111,389.145355 871.015015,387.039734 
	C874.815552,384.063568 877.937622,383.237335 881.892517,386.715668 
	C883.818054,388.409119 886.461914,389.477325 888.954529,390.304321 
	C908.754578,396.873901 928.208313,395.040039 947.455811,387.785431 
	C949.203674,387.126678 951.870422,386.665894 953.212463,387.521576 
	C965.003784,395.040070 977.825439,395.831573 990.748535,392.575989 
	C1003.574341,389.344910 1014.848816,382.922424 1022.526611,371.555450 
	C1024.787598,368.207977 1024.424927,364.884644 1021.391174,362.112335 
	C1018.538330,359.505371 1015.954651,360.314606 1012.912964,362.366180 
	C1007.429932,366.064453 1001.873535,369.926697 995.814331,372.428558 
	C988.312439,375.526123 980.241333,377.695129 972.033081,374.872894 
	C970.372375,374.301849 969.249573,372.166199 967.878784,370.751923 
	C969.461853,369.812103 970.936279,368.410156 972.645752,368.008331 
	C982.827148,365.615173 992.399170,362.028809 1000.184998,354.746857 
	C1007.787842,347.636078 1009.406860,338.877716 1006.731201,329.157806 
	C1004.609375,321.449402 999.014282,317.151062 991.541931,315.605225 
	C983.808167,314.005310 976.082642,315.179749 969.379578,319.306458 
	C952.111511,329.937439 942.570984,345.270386 943.108093,365.949188 
	C943.240234,371.037506 941.052002,373.099670 936.540222,373.972290 
	C935.205261,360.128235 935.226624,360.111206 925.451172,347.848724 
	C922.861877,344.600769 920.220032,341.377472 917.381226,338.350159 
	C913.998352,334.742767 913.355774,331.308777 915.861389,326.684235 
	C918.861877,321.146332 916.728821,315.344421 911.766357,313.162384 
	C905.869995,310.569672 898.015625,313.583984 895.127014,319.348999 
	C889.833313,329.914215 884.540466,340.483612 879.001648,350.920959 
	C874.895752,358.658264 871.565552,367.230835 862.730957,371.050629 
	C860.186462,372.150818 857.119202,372.042084 854.291626,372.487549 
	C853.880066,369.809326 852.782898,367.026001 853.174622,364.470947 
	C854.959961,352.826721 857.128479,341.240326 859.229736,329.645905 
	C860.569702,322.252716 858.666992,319.998993 851.090332,319.907776 
	C849.213623,319.885193 846.019470,319.745392 845.682373,318.830170 
	C843.117371,311.866241 837.379395,312.688568 832.286316,313.422607 
	C808.763916,316.812592 789.803894,337.713745 788.041443,361.436737 
	C787.888062,363.501251 786.794983,366.108551 785.245850,367.348755 
	C779.161743,372.219238 773.047791,377.203888 766.345398,381.120239 
	C750.662842,390.283966 734.122742,396.771149 715.371948,396.142303 
	C691.643127,395.346527 678.350159,376.001587 687.125183,353.954376 
	C691.463745,343.053619 700.220886,336.136078 711.127563,332.945770 
	C720.762695,330.127411 730.918091,329.117767 740.806335,327.123779 
	C746.992249,325.876404 749.649414,322.772797 750.004028,317.076416 
	C750.354797,311.442108 747.162048,306.719238 741.470825,305.107819 
	C737.009460,303.844635 732.353516,303.262299 727.903809,301.966064 
	C719.446899,299.502441 710.522522,297.463104 706.764709,287.966461 
	C701.381592,274.362732 703.728760,258.606232 716.691895,250.881470 
	C723.820496,246.633560 731.880554,243.445435 739.930481,241.367111 
	C751.533081,238.371552 763.058105,240.232880 773.741760,245.911102 
	C775.299316,246.738907 778.488037,247.401794 775.390564,250.892075 
M290.713409,416.186066 
	C294.725647,415.140198 298.847931,414.399567 302.732361,412.999146 
	C328.719666,403.630096 343.918945,383.961639 352.945740,358.969360 
	C360.974609,336.740112 362.265442,313.909912 356.993469,290.761261 
	C350.279938,261.282867 325.589386,235.526505 291.363190,236.817093 
	C268.451263,237.681030 248.685822,245.631027 234.136429,262.994843 
	C209.019180,292.970734 202.665787,327.994354 211.374573,365.631989 
	C215.245636,382.361908 223.677719,397.024109 238.296066,406.967072 
	C253.982498,417.636475 271.508606,419.696960 290.713409,416.186066 
z"/>
<path fill="#FEE77D" opacity="1.000000" stroke="none" 
	d="
M775.700684,250.696777 
	C778.488037,247.401794 775.299316,246.738907 773.741760,245.911102 
	C763.058105,240.232880 751.533081,238.371552 739.930481,241.367111 
	C731.880554,243.445435 723.820496,246.633560 716.691895,250.881470 
	C703.728760,258.606232 701.381592,274.362732 706.764709,287.966461 
	C710.522522,297.463104 719.446899,299.502441 727.903809,301.966064 
	C732.353516,303.262299 737.009460,303.844635 741.470825,305.107819 
	C747.162048,306.719238 750.354797,311.442108 750.004028,317.076416 
	C749.649414,322.772797 746.992249,325.876404 740.806335,327.123779 
	C730.918091,329.117767 720.762695,330.127411 711.127563,332.945770 
	C700.220886,336.136078 691.463745,343.053619 687.125183,353.954376 
	C678.350159,376.001587 691.643127,395.346527 715.371948,396.142303 
	C734.122742,396.771149 750.662842,390.283966 766.345398,381.120239 
	C773.047791,377.203888 779.161743,372.219238 785.245850,367.348755 
	C786.794983,366.108551 787.888062,363.501251 788.041443,361.436737 
	C789.803894,337.713745 808.763916,316.812592 832.286316,313.422607 
	C837.379395,312.688568 843.117371,311.866241 845.682373,318.830170 
	C846.019470,319.745392 849.213623,319.885193 851.090332,319.907776 
	C858.666992,319.998993 860.569702,322.252716 859.229736,329.645905 
	C857.128479,341.240326 854.959961,352.826721 853.174622,364.470947 
	C852.782898,367.026001 853.880066,369.809326 854.291626,372.487549 
	C857.119202,372.042084 860.186462,372.150818 862.730957,371.050629 
	C871.565552,367.230835 874.895752,358.658264 879.001648,350.920959 
	C884.540466,340.483612 889.833313,329.914215 895.127014,319.348999 
	C898.015625,313.583984 905.869995,310.569672 911.766357,313.162384 
	C916.728821,315.344421 918.861877,321.146332 915.861389,326.684235 
	C913.355774,331.308777 913.998352,334.742767 917.381226,338.350159 
	C920.220032,341.377472 922.861877,344.600769 925.451172,347.848724 
	C935.226624,360.111206 935.205261,360.128235 936.540222,373.972290 
	C941.052002,373.099670 943.240234,371.037506 943.108093,365.949188 
	C942.570984,345.270386 952.111511,329.937439 969.379578,319.306458 
	C976.082642,315.179749 983.808167,314.005310 991.541931,315.605225 
	C999.014282,317.151062 1004.609375,321.449402 1006.731201,329.157806 
	C1009.406860,338.877716 1007.787842,347.636078 1000.184998,354.746857 
	C992.399170,362.028809 982.827148,365.615173 972.645752,368.008331 
	C970.936279,368.410156 969.461853,369.812103 967.878784,370.751892 
	C969.249573,372.166199 970.372375,374.301849 972.033081,374.872894 
	C980.241333,377.695129 988.312439,375.526123 995.814331,372.428558 
	C1001.873535,369.926697 1007.429932,366.064453 1012.912964,362.366180 
	C1015.954651,360.314606 1018.538330,359.505371 1021.391174,362.112335 
	C1024.424927,364.884644 1024.787598,368.207977 1022.526611,371.555450 
	C1014.848816,382.922424 1003.574341,389.344910 990.748535,392.575989 
	C977.825439,395.831573 965.003784,395.040070 953.212463,387.521576 
	C951.870422,386.665894 949.203674,387.126678 947.455811,387.785431 
	C928.208313,395.040039 908.754578,396.873901 888.954529,390.304321 
	C886.461914,389.477325 883.818054,388.409119 881.892517,386.715668 
	C877.937622,383.237335 874.815552,384.063568 871.015015,387.039734 
	C868.326111,389.145355 864.986816,390.700348 861.694824,391.704865 
	C850.394226,395.153046 843.100525,391.609528 836.715393,379.485535 
	C835.091553,381.301025 833.541504,382.855072 832.194946,384.569000 
	C823.885376,395.145386 809.118225,397.455139 798.310669,389.510315 
	C795.804199,387.667786 794.516602,388.219635 792.351501,389.835449 
	C774.558899,403.114594 755.408630,413.671661 733.182312,417.303467 
	C715.229370,420.237030 697.401794,420.516998 680.500549,412.148041 
	C663.058167,403.511139 652.790222,382.830383 656.364075,363.680664 
	C656.684875,361.961853 656.779419,360.200836 656.985840,358.399902 
	C644.466248,358.839752 630.465027,365.911316 623.670776,347.211029 
	C620.189819,355.128906 616.997253,362.153778 614.009705,369.264740 
	C611.821045,374.474457 610.108093,379.889160 607.812927,385.047791 
	C604.494629,392.505981 594.967468,395.556610 589.100647,390.769226 
	C586.601318,388.729767 585.303406,385.218079 583.309509,382.144135 
	C577.723511,384.964172 572.107422,388.659119 565.945801,390.735718 
	C552.001770,395.435211 537.993896,396.559357 524.581604,388.393158 
	C523.339783,387.637054 520.947998,387.597656 519.650085,388.284119 
	C503.741119,396.697754 487.254028,395.893188 474.226288,379.370331 
	C466.703705,394.027527 455.058838,397.771271 440.580200,391.137054 
	C427.680389,385.226227 424.091919,373.826660 424.631500,360.049561 
	C414.672852,359.322418 402.556580,362.965118 398.857513,346.793884 
	C395.537659,353.997986 392.744934,359.702850 390.264160,365.540314 
	C387.727386,371.509552 385.462067,377.595673 383.140961,383.654785 
	C380.614716,390.249329 374.821411,393.871735 368.376556,392.796448 
	C362.666595,391.843750 359.402832,387.654144 359.026367,380.385956 
	C358.118469,362.857697 359.231537,345.457703 364.353088,328.617126 
	C365.672180,324.279755 368.717560,319.864532 372.215515,317.013092 
	C374.401825,315.230835 379.223633,315.353821 382.309967,316.344360 
	C386.048950,317.544434 386.500366,321.638428 385.775787,325.310730 
	C384.555420,331.495941 383.142914,337.643097 381.829437,343.810150 
	C381.501770,345.348663 381.243744,346.901947 380.953705,348.448425 
	C381.332001,348.608826 381.710266,348.769196 382.088562,348.929565 
	C384.343140,345.415314 386.337006,341.696075 388.905670,338.428741 
	C394.524963,331.281006 400.347534,324.285828 406.309479,317.421509 
	C407.381348,316.187408 409.495819,315.304840 411.168365,315.237335 
	C421.082153,314.837372 424.791962,318.789734 422.413055,328.604736 
	C421.673615,331.655396 420.117523,334.498932 419.190430,337.515686 
	C418.169983,340.836243 419.483704,342.289032 423.004089,341.629913 
	C427.560059,340.776855 431.114136,338.991486 433.819458,334.691101 
	C441.681549,322.193726 452.410980,313.915039 468.035645,314.081726 
	C469.828674,314.100861 471.618530,314.415131 474.116669,314.662567 
	C475.104401,308.960419 475.988525,303.297028 477.077606,297.673340 
	C480.496002,280.021118 483.659882,262.196045 495.389374,247.661865 
	C502.174957,239.253738 511.425568,235.794479 522.079712,237.396378 
	C531.749512,238.850235 538.392639,248.018127 538.860474,259.345062 
	C539.306274,270.136810 535.684509,279.911316 531.599854,289.627136 
	C523.710815,308.391968 511.289581,324.298248 499.673004,340.719940 
	C497.462799,343.844360 495.481049,347.144745 493.105469,350.134827 
	C487.701569,356.936584 489.296783,364.035614 492.601685,370.758301 
	C495.854584,377.375305 507.216400,378.026001 512.037598,372.214050 
	C512.765747,371.336273 512.991760,369.739471 512.891052,368.521454 
	C511.058197,346.347046 521.301086,330.485199 539.302490,319.109924 
	C548.748779,313.140717 563.400024,313.896851 570.026001,319.675659 
	C581.665710,329.827118 580.098267,348.624725 565.966370,357.726532 
	C558.980896,362.225616 550.567627,364.486053 542.873169,367.922363 
	C541.104492,368.712219 539.634827,370.171722 538.027588,371.322998 
	C539.524353,372.602478 540.953674,374.872650 542.530212,374.980011 
	C547.751770,375.335480 553.374817,376.029236 558.199524,374.525726 
	C565.541687,372.237610 572.441711,368.408447 579.340942,364.866455 
	C583.559448,362.700714 584.542542,358.632080 585.140137,354.009186 
	C586.327454,344.823730 587.882385,335.626465 590.172729,326.660797 
	C592.167908,318.850800 597.368774,314.937286 603.336365,315.061066 
	C608.101074,315.159882 611.500916,318.147858 610.870422,322.903717 
	C609.804443,330.943939 607.949097,338.879395 606.429993,346.859711 
	C606.281738,347.638672 606.163879,348.423431 606.859619,349.623596 
	C610.307373,344.307556 613.493286,338.796112 617.274841,333.729156 
	C621.240601,328.415405 625.622131,323.385040 630.112183,318.497559 
	C634.000305,314.265350 639.127930,314.061005 643.885437,316.427063 
	C645.796814,317.377594 647.899719,320.505554 647.764343,322.496246 
	C647.444580,327.199249 645.761719,331.799377 644.788818,336.474121 
	C644.479126,337.962097 644.043823,340.201599 644.795837,340.928772 
	C645.663208,341.767426 647.894714,341.737274 649.334839,341.348053 
	C655.726440,339.620544 662.063599,337.682709 668.375671,335.679596 
	C669.406067,335.352631 670.328735,334.424957 671.102661,333.590790 
	C681.835022,322.024017 695.398438,316.481659 711.852600,314.803223 
	C710.005615,313.957367 709.027222,313.435516 707.996155,313.057281 
	C706.905273,312.657074 705.773132,312.358063 704.643799,312.075592 
	C678.182373,305.457092 666.501770,280.561401 678.521545,256.083954 
	C686.306824,240.229858 699.568970,231.025955 716.229065,226.584854 
	C733.677917,221.933517 751.399353,220.573181 768.860779,226.155411 
	C782.173157,230.411255 794.785767,236.808273 798.136230,251.904205 
	C800.986023,264.744843 799.895691,273.049469 789.391296,278.234894 
	C780.728149,282.511414 770.865784,279.635468 766.986938,271.789978 
	C762.906372,263.536621 766.046387,255.728104 775.700684,250.696777 
M813.788208,345.388031 
	C809.441406,352.370148 806.945312,359.695587 809.031006,368.076141 
	C809.842407,371.336609 811.414429,373.549377 814.840637,374.031281 
	C821.117310,374.914124 826.551392,373.230560 830.066162,367.781281 
	C832.291626,364.330841 834.359314,360.559265 835.446716,356.640106 
	C837.662231,348.655304 839.223877,340.485138 840.915894,332.362366 
	C841.251892,330.749390 840.964355,329.006561 840.964355,327.163940 
	C828.162292,328.339050 820.492310,335.562164 813.788208,345.388031 
M450.058563,372.585663 
	C457.662201,377.070770 464.035339,375.432587 466.319733,366.776489 
	C469.339691,355.333221 470.759094,343.459503 472.555206,331.723175 
	C472.653809,331.078735 469.493988,328.938171 468.546722,329.302643 
	C464.281616,330.943634 459.558746,332.486603 456.360718,335.505371 
	C453.099701,338.583679 451.509247,343.395691 449.040588,347.357178 
	C444.420532,354.770935 444.567352,365.082062 450.058563,372.585663 
M493.059875,309.738525 
	C492.311554,315.595062 491.563232,321.451630 490.814941,327.308167 
	C491.534302,327.497284 492.253662,327.686401 492.973022,327.875519 
	C499.488190,314.849030 506.393463,301.997894 512.360107,288.724823 
	C515.523376,281.687866 517.281189,273.974213 519.163208,266.438599 
	C519.618286,264.616425 518.657410,261.440796 517.245300,260.434753 
	C515.847534,259.438934 512.169983,259.522522 511.043579,260.663727 
	C507.648651,264.103180 503.678680,267.878265 502.329437,272.260284 
	C498.633698,284.263428 496.164246,296.644135 493.059875,309.738525 
M912.190491,354.381317 
	C910.631348,351.805145 909.072205,349.228943 906.783081,345.446594 
	C902.898621,353.188568 899.708374,359.493225 896.566528,365.821930 
	C892.307800,374.400452 893.690918,377.104095 903.217041,378.839447 
	C904.185364,379.015839 905.200439,378.993805 906.192078,378.974792 
	C914.245361,378.820282 918.366577,373.605591 916.340454,365.765656 
	C915.394958,362.107056 913.833252,358.607666 912.190491,354.381317 
M967.149353,344.814697 
	C966.084900,347.927734 964.701660,350.976715 964.059448,354.174530 
	C963.568237,356.620728 964.984070,359.059113 967.738647,357.440063 
	C974.676697,353.362183 981.513245,349.031372 987.933533,344.195312 
	C990.215393,342.476532 992.139771,339.072784 989.826782,335.759613 
	C987.588379,332.553192 983.838989,331.914734 980.954102,333.704376 
	C976.160278,336.678345 971.977051,340.636780 967.149353,344.814697 
M534.665222,357.967499 
	C544.254761,355.529022 552.503662,350.827393 558.394653,342.791077 
	C559.619324,341.120453 559.973572,337.782898 559.131653,335.945465 
	C558.433472,334.421753 555.393982,333.204956 553.375305,333.180054 
	C542.640259,333.047668 531.205505,349.308228 534.665222,357.967499 
z"/>
<path fill="#FEE77C" opacity="1.000000" stroke="none" 
	d="
M290.298889,416.305725 
	C271.508606,419.696960 253.982498,417.636475 238.296066,406.967072 
	C223.677719,397.024109 215.245636,382.361908 211.374573,365.631989 
	C202.665787,327.994354 209.019180,292.970734 234.136429,262.994843 
	C248.685822,245.631027 268.451263,237.681030 291.363190,236.817093 
	C325.589386,235.526505 350.279938,261.282867 356.993469,290.761261 
	C362.265442,313.909912 360.974609,336.740112 352.945740,358.969360 
	C343.918945,383.961639 328.719666,403.630096 302.732361,412.999146 
	C298.847931,414.399567 294.725647,415.140198 290.298889,416.305725 
M246.773209,379.653229 
	C251.540329,386.085052 257.209198,391.235779 265.294037,393.169006 
	C282.359741,397.249786 296.860107,392.290192 309.068756,380.316406 
	C321.180328,368.437805 327.205597,353.445953 329.587250,336.908112 
	C332.195312,318.798218 332.729584,300.911652 325.163055,283.507996 
	C313.884216,257.565826 291.270905,253.749664 268.974915,264.747925 
	C257.888275,270.216766 250.209946,279.545074 244.717194,290.488251 
	C236.766266,306.328888 234.536774,323.351227 234.939560,340.868652 
	C235.256714,354.662262 238.898773,367.421448 246.773209,379.653229 
z"/>
<path fill="#FFFEFC" opacity="1.000000" stroke="none" 
	d="
M813.968506,345.071960 
	C820.492310,335.562164 828.162292,328.339050 840.964355,327.163940 
	C840.964355,329.006561 841.251892,330.749390 840.915894,332.362366 
	C839.223877,340.485138 837.662231,348.655304 835.446716,356.640106 
	C834.359314,360.559265 832.291626,364.330841 830.066162,367.781281 
	C826.551392,373.230560 821.117310,374.914124 814.840637,374.031281 
	C811.414429,373.549377 809.842407,371.336609 809.031006,368.076141 
	C806.945312,359.695587 809.441406,352.370148 813.968506,345.071960 
z"/>
<path fill="#FFFEFC" opacity="1.000000" stroke="none" 
	d="
M449.786285,372.311340 
	C444.567352,365.082062 444.420532,354.770935 449.040588,347.357178 
	C451.509247,343.395691 453.099701,338.583679 456.360718,335.505371 
	C459.558746,332.486603 464.281616,330.943634 468.546722,329.302643 
	C469.493988,328.938171 472.653809,331.078735 472.555206,331.723175 
	C470.759094,343.459503 469.339691,355.333221 466.319733,366.776489 
	C464.035339,375.432587 457.662201,377.070770 449.786285,372.311340 
z"/>
<path fill="#FFFEFB" opacity="1.000000" stroke="none" 
	d="
M493.134583,309.306946 
	C496.164246,296.644135 498.633698,284.263428 502.329437,272.260284 
	C503.678680,267.878265 507.648651,264.103180 511.043579,260.663727 
	C512.169983,259.522522 515.847534,259.438934 517.245300,260.434753 
	C518.657410,261.440796 519.618286,264.616425 519.163208,266.438599 
	C517.281189,273.974213 515.523376,281.687866 512.360107,288.724823 
	C506.393463,301.997894 499.488190,314.849030 492.973022,327.875519 
	C492.253662,327.686401 491.534302,327.497284 490.814941,327.308167 
	C491.563232,321.451630 492.311554,315.595062 493.134583,309.306946 
z"/>
<path fill="#FFFEFB" opacity="1.000000" stroke="none" 
	d="
M912.370605,354.708740 
	C913.833252,358.607666 915.394958,362.107056 916.340454,365.765656 
	C918.366577,373.605591 914.245361,378.820282 906.192078,378.974792 
	C905.200439,378.993805 904.185364,379.015839 903.217041,378.839447 
	C893.690918,377.104095 892.307800,374.400452 896.566528,365.821930 
	C899.708374,359.493225 902.898621,353.188568 906.783081,345.446594 
	C909.072205,349.228943 910.631348,351.805145 912.370605,354.708740 
z"/>
<path fill="#FFFEFA" opacity="1.000000" stroke="none" 
	d="
M967.343018,344.497620 
	C971.977051,340.636780 976.160278,336.678345 980.954102,333.704376 
	C983.838989,331.914734 987.588379,332.553192 989.826782,335.759613 
	C992.139771,339.072784 990.215393,342.476532 987.933533,344.195312 
	C981.513245,349.031372 974.676697,353.362183 967.738647,357.440063 
	C964.984070,359.059113 963.568237,356.620728 964.059448,354.174530 
	C964.701660,350.976715 966.084900,347.927734 967.343018,344.497620 
z"/>
<path fill="#FFFEFA" opacity="1.000000" stroke="none" 
	d="
M534.296631,357.834412 
	C531.205505,349.308228 542.640259,333.047668 553.375305,333.180054 
	C555.393982,333.204956 558.433472,334.421753 559.131653,335.945465 
	C559.973572,337.782898 559.619324,341.120453 558.394653,342.791077 
	C552.503662,350.827393 544.254761,355.529022 534.296631,357.834412 
z"/>
<path fill="#FFFFFE" opacity="1.000000" stroke="none" 
	d="
M246.571762,379.353577 
	C238.898773,367.421448 235.256714,354.662262 234.939560,340.868652 
	C234.536774,323.351227 236.766266,306.328888 244.717194,290.488251 
	C250.209946,279.545074 257.888275,270.216766 268.974915,264.747925 
	C291.270905,253.749664 313.884216,257.565826 325.163055,283.507996 
	C332.729584,300.911652 332.195312,318.798218 329.587250,336.908112 
	C327.205597,353.445953 321.180328,368.437805 309.068756,380.316406 
	C296.860107,392.290192 282.359741,397.249786 265.294037,393.169006 
	C257.209198,391.235779 251.540329,386.085052 246.571762,379.353577 
z"/>
</svg>